,
Brought to you by  http://www.scenetime.com/signup.php
 
 Hottest scene tracker on the net !!!   
 
No fake torrents from scenebalance 
shame on those who comment fake before downloading my torrents

    seed back for speed


 



...................................NFO:.................................................Another Fine Release Brought to you from -
===================================================================================================
BBBBBBBBBBBBBBBBB   BBBBBBBBBBBBBBBBB                     RRRRRRRRRRRRRRRRR           GGGGGGGGGGGGG
B::::::::::::::::B  B::::::::::::::::B                    R::::::::::::::::R       GGG::::::::::::G
B::::::BBBBBB:::::B B::::::BBBBBB:::::B                   R::::::RRRRRR:::::R    GG:::::::::::::::G
BB:::::B     B:::::BBB:::::B     B:::::B                  RR:::::R     R:::::R  G:::::GGGGGGGG::::G
  B::::B     B:::::B  B::::B     B:::::Bnnnn  nnnnnnnn      R::::R     R:::::R G:::::G       GGGGGG
  B::::B     B:::::B  B::::B     B:::::Bn:::nn::::::::nn    R::::R     R:::::RG:::::G              
  B::::BBBBBB:::::B   B::::BBBBBB:::::B n::::::::::::::nn   R::::RRRRRR:::::R G:::::G              
  B:::::::::::::BB    B:::::::::::::BB  nn:::::::::::::::n  R:::::::::::::RR  G:::::G    GGGGGGGGGG
  B::::BBBBBB:::::B   B::::BBBBBB:::::B   n:::::nnnn:::::n  R::::RRRRRR:::::R G:::::G    G::::::::G
  B::::B     B:::::B  B::::B     B:::::B  n::::n    n::::n  R::::R     R:::::RG:::::G    GGGGG::::G
  B::::B     B:::::B  B::::B     B:::::B  n::::n    n::::n  R::::R     R:::::RG:::::G        G::::G
  B::::B     B:::::B  B::::B     B:::::B  n::::n    n::::n  R::::R     R:::::R G:::::G       G::::G
BB:::::BBBBBB::::::BBB:::::BBBBBB::::::B  n::::n    n::::nRR:::::R     R:::::R  G:::::GGGGGGGG::::G
B:::::::::::::::::B B:::::::::::::::::B   n::::n    n::::nR::::::R     R:::::R   GG:::::::::::::::G
B::::::::::::::::B  B::::::::::::::::B    n::::n    n::::nR::::::R     R:::::R     GGG::::::GGG:::G
BBBBBBBBBBBBBBBBB   BBBBBBBBBBBBBBBBB     nnnnnn    nnnnnnRRRRRRRR     RRRRRRR        GGGGGG   GGGG
===================================================================================================
                        I am Number Four (2011) DVDrip x264-BBnRG
===================================================================================================
                                                                                               
 ___     _                    ___       __    
| _ \___| |___ __ _ ___ ___  |_ _|_ _  / _|___
|   / -_) / -_) _` (_-</ -_)  | || ' \|  _/ _ \
|_|_\___|_\___\__,_/__/\___| |___|_||_|_| \___/
===================================================================================================
 
Format                           : MPEG-4
Format profile                   : Base Media / Version 2
Codec ID                         : mp42
File size                        : 396 MiB
Duration                         : 1h 49mn
Overall bit rate                 : 505 Kbps

Video
ID                               : 1
Format                           : AVC
Format/Info                      : Advanced Video Codec
Format profile                   : Main@L2.2
Format settings, CABAC           : Yes
Format settings, ReFrames        : 4 frames
Codec ID                         : avc1
Codec ID/Info                    : Advanced Video Coding
Duration                         : 1h 49mn
Bit rate mode                    : Variable
Bit rate                         : 340 Kbps
Width                            : 624 pixels
Height                           : 336 pixels
Display aspect ratio             : 1.857
Frame rate mode                  : Variable
Frame rate                       : 23.976 fps
Minimum frame rate               : 11.989 fps
Maximum frame rate               : 48.754 fps
Color space                      : YUV
Chroma subsampling               : 4:2:0
Bit depth                        : 8 bits
Scan type                        : Progressive
Bits/(Pixel*Frame)               : 0.068
Stream size                      : 266 MiB (67%)
Writing library                  : x264 core 112

Audio
ID                               : 2
Format                           : AAC
Format/Info                      : Advanced Audio Codec
Format profile                   : LC
Codec ID                         : 40
Duration                         : 1h 49mn
Bit rate mode                    : Variable
Bit rate                         : 160 Kbps
Maximum bit rate                 : 254 Kbps
Channel(s)                       : 2 channels
Channel positions                : Front: L R
Sampling rate                    : 48.0 KHz
Compression mode                 : Lossy
Stream size                      : 125 MiB (32%)
 

 ___     _                    ___                 _      _   _          
| _ \___| |___ __ _ ___ ___  |   \ ___ ___ __ _ _(_)_ __| |_(_)___ _ _  
|   / -_) / -_) _` (_-</ -_) | |) / -_|_-</ _| '_| | '_ \  _| / _ \ ' \
|_|_\___|_\___\__,_/__/\___| |___/\___/__/\__|_| |_| .__/\__|_\___/_||_|
                                                   |_|                  
===================================================================================================
 
Encoder: RANDom

IMDB: http://www.imdb.com/title/tt1464540/

Plot:  John is an extraordinary teen, masking his true identity and passing as a typical high
school student to elude a deadly enemy seeking to destroy him. Three like him have already been
killed ... he is Number Four.  
 
 
 
  ___                     _  _     _          
 / __|_ _ ___ _  _ _ __  | \| |___| |_ ___ ___
| (_ | '_/ _ \ || | '_ \ | .` / _ \  _/ -_|_-<
 \___|_| \___/\_,_| .__/ |_|\_\___/\__\___/__/
                  |_|                        
===================================================================================================
 
Source Used: DVDrip - DEFACED (Thanks!) WITH THE SYNC FIX APPLIED
 
Release Notes:
Here we are with another excellant release, i took the source from DEFACED (Thanks) - I had a
very little tinker, didn't need much doing, as DEFACED did an excellant job with the video. 
I then ran the sync fix as the audio was out of sync. This is the reason for the read NFO. I then
did some magic and shrank the file size. The quality was preserved whilst shrinking the file and
the quality is good considering the file size. Enjoy.


If you have anything you can offer that could be of use please visit our home:

RANDom: Presenting Another Great Quality Release At A Small File Size.


For more great releases like this and exclusive releases please visit: 
 
 
 ___     _                     ___            _ _ _        
| _ \___| |___ __ _ ___ ___   / _ \ _  _ __ _| (_) |_ _  _
|   / -_) / -_) _` (_-</ -_) | (_) | || / _` | | |  _| || |
|_|_\___|_\___\__,_/__/\___|  \__\_\\_,_\__,_|_|_|\__|\_, |
                                                      |__/
===================================================================================================
 
Screenshots:

[img]http://img571.imageshack.us/img571/4972/screen2011050419h11m02s.jpg[/img]
[img]http://img857.imageshack.us/img857/7234/screen2011050419h10m50s.jpg[/img]
[img]http://img854.imageshack.us/img854/4097/screen2011050419h10m43s.jpg[/img]
[img]http://img109.imageshack.us/img109/8436/screen2011050419h10m35s.jpg[/img]
[img]http://img713.imageshack.us/img713/9627/screen2011050419h10m20s.jpg[/img]
[img]http://img33.imageshack.us/img33/8905/screen2011050419h10m14s.jpg[/img]




  ___             _      
 / __|_ _ ___ ___| |_ ___
| (_ | '_/ -_) -_)  _|_ /
 \___|_| \___\___|\__/__|
===================================================================================================
 
DEFACED, HIVE-CM8, *THC*, SANTI, IMAGiNE, NiCkkkDoN, Hive-CM8, & to all other p2p team out there....